<svg width="280" height="34" viewBox="0 0 280 34" fill="none" xmlns="http://www.w3.org/2000/svg">
  <g clipPath="url(#clip0)">
    <rect width="381.701" height="170.501" fill="transparent" fillOpacity="0" transform="translate(24.1523 -141.889)" />
    <rect width="202.287" height="168.832" fill="transparent" fillOpacity="0" transform="translate(103.16 -140.221)" />
    <line y1="-1.5" x2="234.464" y2="-1.5" transform="matrix(0.693897 -0.720075 0.709483 0.704722 103.16 28.6104)" stroke="#7F7FD5" strokeWidth="3" />
    <line y1="-1.5" x2="234.464" y2="-1.5" transform="matrix(0.693897 -0.720075 0.709483 0.704722 122.594 28.6113)" stroke="#7F7FD5" strokeWidth="3" />
    <line y1="-1.5" x2="234.464" y2="-1.5" transform="matrix(0.693897 -0.720075 0.709483 0.704722 142.754 28.6104)" stroke="#7F7FD5" strokeWidth="3" />
    <line y1="-1.5" x2="234.464" y2="-1.5" transform="matrix(0.693897 -0.720075 0.709483 0.704722 162.91 28.6104)" stroke="#7F7FD5" strokeWidth="3" />
    <rect width="223.166" height="168.832" fill="transparent" fillOpacity="0" transform="translate(182.688 -140.22)" />
    <line y1="-1.5" x2="234.464" y2="-1.5" transform="matrix(0.693897 -0.720075 0.709483 0.704722 182.688 28.6123)" stroke="#7F7FD5" strokeWidth="3" />
    <line y1="-1.5" x2="234.464" y2="-1.5" transform="matrix(0.693897 -0.720075 0.709483 0.704722 202.844 28.6123)" stroke="#7F7FD5" strokeWidth="3" />
    <line y1="-1.5" x2="234.464" y2="-1.5" transform="matrix(0.693897 -0.720075 0.709483 0.704722 223.004 28.6113)" stroke="#7F7FD5" strokeWidth="3" />
    <line y1="-1.5" x2="234.464" y2="-1.5" transform="matrix(0.693897 -0.720075 0.709483 0.704722 243.16 28.6113)" stroke="#7F7FD5" strokeWidth="3" />
    <line y1="-1.5" x2="234.464" y2="-1.5" transform="matrix(0.693897 -0.720075 0.709483 0.704722 24.1523 26.9424)" stroke="#7F7FD5" strokeWidth="3" />
    <line y1="-1.5" x2="234.464" y2="-1.5" transform="matrix(0.693897 -0.720075 0.709483 0.704722 43.5859 26.9434)" stroke="#7F7FD5" strokeWidth="3" />
    <line y1="-1.5" x2="234.464" y2="-1.5" transform="matrix(0.693897 -0.720075 0.709483 0.704722 63.7461 26.9424)" stroke="#7F7FD5" strokeWidth="3" />
    <line y1="-1.5" x2="234.464" y2="-1.5" transform="matrix(0.693897 -0.720075 0.709483 0.704722 83.9023 26.9424)" stroke="#7F7FD5" strokeWidth="3" />
  </g>
  <defs>
    <clipPath id="clip0">
      <rect width="280" height="34" fill="transparent" />
    </clipPath>
  </defs>
</svg>
